<svg xmlns="http://www.w3.org/2000/svg"  viewBox="0 0 32 32" width="32px" height="32px" baseProfile="basic"><polygon fill="#e83815" points="23.528,4.229 16,11.757 8.472,4.229 4.229,8.472 11.757,16 4.229,23.528 8.472,27.771 16,20.243 23.528,27.771 27.771,23.528 20.243,16 27.771,8.472"/><rect width="27.293" height="1" x="1.293" y="14.44" fill="#fff" transform="rotate(-45.001 14.94 14.94)"/><path fill="#302529" d="M23.528,29.185L16,21.657l-7.528,7.528l-5.657-5.657L10.343,16L2.815,8.472l5.657-5.657L16,10.343	l7.528-7.528l5.657,5.657L21.657,16l7.528,7.528L23.528,29.185z M16,18.829l7.528,7.528l2.829-2.829L18.829,16l7.528-7.528	l-2.829-2.829L16,13.171L8.472,5.643L5.643,8.472L13.171,16l-7.528,7.528l2.829,2.829L16,18.829z"/></svg>